<?xml version="1.0" encoding="UTF-8" standalone="no"?>
<!-- Created with Inkscape (http://www.inkscape.org/) -->

<svg
   width="135.46666mm"
   height="135.46666mm"
   viewBox="0 0 135.46666 135.46666"
   version="1.1"
   id="svg1"
   inkscape:version="1.3.2 (091e20ef0f, 2023-11-25)"
   sodipodi:docname="Personal_logo_white.svg"
   xmlns:inkscape="http://www.inkscape.org/namespaces/inkscape"
   xmlns:sodipodi="http://sodipodi.sourceforge.net/DTD/sodipodi-0.dtd"
   xmlns="http://www.w3.org/2000/svg"
   xmlns:svg="http://www.w3.org/2000/svg">
  <sodipodi:namedview
     id="namedview1"
     pagecolor="#646464"
     bordercolor="#000000"
     borderopacity="0.25"
     inkscape:showpageshadow="2"
     inkscape:pageopacity="0.0"
     inkscape:pagecheckerboard="false"
     inkscape:deskcolor="#d1d1d1"
     inkscape:document-units="mm"
     showguides="true"
     showgrid="true"
     inkscape:lockguides="false"
     inkscape:zoom="0.93075436"
     inkscape:cx="5.9091853"
     inkscape:cy="358.84871"
     inkscape:window-width="2560"
     inkscape:window-height="1008"
     inkscape:window-x="0"
     inkscape:window-y="0"
     inkscape:window-maximized="1"
     inkscape:current-layer="layer1"
     showborder="true"
     borderlayer="true">
    <inkscape:grid
       id="grid5"
       units="mm"
       originx="-35.000001"
       originy="-30.000002"
       spacingx="0.99999998"
       spacingy="1"
       empcolor="#0099e5"
       empopacity="0.30196078"
       color="#0099e5"
       opacity="0.14901961"
       empspacing="5"
       dotted="false"
       gridanglex="30"
       gridanglez="30"
       visible="true" />
  </sodipodi:namedview>
  <defs
     id="defs1" />
  <g
     inkscape:label="Layer 1"
     inkscape:groupmode="layer"
     id="layer1"
     transform="translate(-35,-30.000002)">
    <g
       id="g1"
       style="stroke-width:0.79375;stroke-dasharray:none">
      <rect
         style="fill:#ffffff;fill-opacity:1;stroke:none;stroke-width:0.79375;stroke-opacity:1;stroke-dasharray:none"
         id="rect215"
         width="135.46666"
         height="135.46666"
         x="35"
         y="30.000002" />
      <path
         style="fill:none;fill-opacity:1;stroke:#000000;stroke-width:0.79375;stroke-opacity:1;stroke-dasharray:none"
         id="path210"
         sodipodi:type="arc"
         sodipodi:cx="70.837784"
         sodipodi:cy="65.34446"
         sodipodi:rx="7.1298246"
         sodipodi:ry="7.1298237"
         sodipodi:start="1.5707963"
         sodipodi:end="4.712389"
         sodipodi:arc-type="arc"
         d="m 70.837784,72.474283 a 7.1298246,7.1298237 0 0 1 -6.174609,-3.564912 7.1298246,7.1298237 0 0 1 0,-7.129823 7.1298246,7.1298237 0 0 1 6.174609,-3.564912"
         sodipodi:open="true" />
      <path
         style="fill:#000000;fill-opacity:1;stroke:#000000;stroke-width:0.79375;stroke-opacity:1;stroke-dasharray:none"
         id="path211"
         sodipodi:type="arc"
         sodipodi:cx="70.837784"
         sodipodi:cy="65.34446"
         sodipodi:rx="7.1298246"
         sodipodi:ry="7.1298237"
         sodipodi:start="4.712389"
         sodipodi:end="1.5707963"
         sodipodi:arc-type="arc"
         d="m 70.837784,58.214636 a 7.1298246,7.1298237 0 0 1 7.129824,7.129824 7.1298246,7.1298237 0 0 1 -7.129824,7.129823"
         sodipodi:open="true" />
      <path
         style="fill:none;fill-opacity:1;stroke:#000000;stroke-width:0.79375;stroke-opacity:1;stroke-dasharray:none"
         id="path212"
         sodipodi:type="arc"
         sodipodi:cx="92.227257"
         sodipodi:cy="65.34446"
         sodipodi:rx="7.1298246"
         sodipodi:ry="7.1298237"
         sodipodi:start="1.5707963"
         sodipodi:end="4.712389"
         sodipodi:arc-type="arc"
         d="m 92.227257,72.474283 a 7.1298246,7.1298237 0 0 1 -6.174609,-3.564912 7.1298246,7.1298237 0 0 1 0,-7.129823 7.1298246,7.1298237 0 0 1 6.174609,-3.564912"
         sodipodi:open="true" />
      <path
         style="fill:#000000;fill-opacity:1;stroke:#000000;stroke-width:0.79375;stroke-opacity:1;stroke-dasharray:none"
         id="path213"
         sodipodi:type="arc"
         sodipodi:cx="92.227257"
         sodipodi:cy="65.34446"
         sodipodi:rx="7.1298246"
         sodipodi:ry="7.1298237"
         sodipodi:start="4.712389"
         sodipodi:end="1.5707963"
         sodipodi:arc-type="arc"
         d="m 92.227257,58.214636 a 7.1298246,7.1298237 0 0 1 7.129824,7.129824 7.1298246,7.1298237 0 0 1 -7.129824,7.129823"
         sodipodi:open="true" />
      <path
         style="fill:none;fill-opacity:1;stroke:#000000;stroke-width:0.79375;stroke-opacity:1;stroke-dasharray:none"
         id="path216"
         sodipodi:type="arc"
         sodipodi:cx="113.61673"
         sodipodi:cy="65.34446"
         sodipodi:rx="7.1298246"
         sodipodi:ry="7.1298237"
         sodipodi:start="1.5707963"
         sodipodi:end="4.712389"
         sodipodi:arc-type="arc"
         d="m 113.61673,72.474283 a 7.1298246,7.1298237 0 0 1 -6.17461,-3.564912 7.1298246,7.1298237 0 0 1 0,-7.129823 7.1298246,7.1298237 0 0 1 6.17461,-3.564912"
         sodipodi:open="true" />
      <path
         style="fill:#000000;fill-opacity:1;stroke:#000000;stroke-width:0.79375;stroke-opacity:1;stroke-dasharray:none"
         id="path217"
         sodipodi:type="arc"
         sodipodi:cx="113.61673"
         sodipodi:cy="65.34446"
         sodipodi:rx="7.1298246"
         sodipodi:ry="7.1298237"
         sodipodi:start="4.712389"
         sodipodi:end="1.5707963"
         sodipodi:arc-type="arc"
         d="m 113.61673,58.214636 a 7.1298246,7.1298237 0 0 1 7.12982,7.129824 7.1298246,7.1298237 0 0 1 -7.12982,7.129823"
         sodipodi:open="true" />
      <path
         style="fill:none;fill-opacity:1;stroke:#000000;stroke-width:0.79375;stroke-opacity:1;stroke-dasharray:none"
         id="path222"
         sodipodi:type="arc"
         sodipodi:cx="70.837784"
         sodipodi:cy="86.733932"
         sodipodi:rx="7.1298246"
         sodipodi:ry="7.1298237"
         sodipodi:start="1.5707963"
         sodipodi:end="4.712389"
         sodipodi:arc-type="arc"
         d="m 70.837784,93.863756 a 7.1298246,7.1298237 0 0 1 -6.174609,-3.564912 7.1298246,7.1298237 0 0 1 0,-7.129823 7.1298246,7.1298237 0 0 1 6.174609,-3.564912"
         sodipodi:open="true" />
      <path
         style="fill:#000000;fill-opacity:1;stroke:#000000;stroke-width:0.79375;stroke-opacity:1;stroke-dasharray:none"
         id="path223"
         sodipodi:type="arc"
         sodipodi:cx="70.837784"
         sodipodi:cy="86.733932"
         sodipodi:rx="7.1298246"
         sodipodi:ry="7.1298237"
         sodipodi:start="4.712389"
         sodipodi:end="1.5707963"
         sodipodi:arc-type="arc"
         d="m 70.837784,79.604109 a 7.1298246,7.1298237 0 0 1 7.129824,7.129823 7.1298246,7.1298237 0 0 1 -7.129824,7.129824"
         sodipodi:open="true" />
      <path
         style="fill:none;fill-opacity:1;stroke:#000000;stroke-width:0.79375;stroke-opacity:1;stroke-dasharray:none"
         id="path224"
         sodipodi:type="arc"
         sodipodi:cx="70.837784"
         sodipodi:cy="108.12341"
         sodipodi:rx="7.1298246"
         sodipodi:ry="7.1298237"
         sodipodi:start="1.5707963"
         sodipodi:end="4.712389"
         sodipodi:arc-type="arc"
         d="m 70.837784,115.25324 a 7.1298246,7.1298237 0 0 1 -6.174609,-3.56492 7.1298246,7.1298237 0 0 1 0,-7.12982 7.1298246,7.1298237 0 0 1 6.174609,-3.56491"
         sodipodi:open="true" />
      <path
         style="fill:#000000;fill-opacity:1;stroke:#000000;stroke-width:0.79375;stroke-opacity:1;stroke-dasharray:none"
         id="path225"
         sodipodi:type="arc"
         sodipodi:cx="70.837784"
         sodipodi:cy="108.12341"
         sodipodi:rx="7.1298246"
         sodipodi:ry="7.1298237"
         sodipodi:start="4.712389"
         sodipodi:end="1.5707963"
         sodipodi:arc-type="arc"
         d="m 70.837784,100.99359 a 7.1298246,7.1298237 0 0 1 7.129824,7.12982 7.1298246,7.1298237 0 0 1 -7.129824,7.12983"
         sodipodi:open="true" />
      <path
         style="fill:none;fill-opacity:1;stroke:#000000;stroke-width:0.79375;stroke-opacity:1;stroke-dasharray:none"
         id="path226"
         sodipodi:type="arc"
         sodipodi:cx="70.837784"
         sodipodi:cy="129.51288"
         sodipodi:rx="7.1298246"
         sodipodi:ry="7.1298237"
         sodipodi:start="1.5707963"
         sodipodi:end="4.712389"
         sodipodi:arc-type="arc"
         d="m 70.837784,136.6427 a 7.1298246,7.1298237 0 0 1 -6.174609,-3.56491 7.1298246,7.1298237 0 0 1 0,-7.12982 7.1298246,7.1298237 0 0 1 6.174609,-3.56492"
         sodipodi:open="true" />
      <path
         style="fill:#000000;fill-opacity:1;stroke:#000000;stroke-width:0.79375;stroke-opacity:1;stroke-dasharray:none"
         id="path227"
         sodipodi:type="arc"
         sodipodi:cx="70.837784"
         sodipodi:cy="129.51288"
         sodipodi:rx="7.1298246"
         sodipodi:ry="7.1298237"
         sodipodi:start="4.712389"
         sodipodi:end="1.5707963"
         sodipodi:arc-type="arc"
         d="m 70.837784,122.38305 a 7.1298246,7.1298237 0 0 1 7.129824,7.12983 7.1298246,7.1298237 0 0 1 -7.129824,7.12982"
         sodipodi:open="true" />
      <path
         style="fill:none;fill-opacity:1;stroke:#000000;stroke-width:0.79375;stroke-opacity:1;stroke-dasharray:none"
         id="path236"
         sodipodi:type="arc"
         sodipodi:cx="113.61673"
         sodipodi:cy="108.12341"
         sodipodi:rx="7.1298246"
         sodipodi:ry="7.1298237"
         sodipodi:start="1.5707963"
         sodipodi:end="4.712389"
         sodipodi:arc-type="arc"
         d="m 113.61673,115.25324 a 7.1298246,7.1298237 0 0 1 -6.17461,-3.56492 7.1298246,7.1298237 0 0 1 0,-7.12982 7.1298246,7.1298237 0 0 1 6.17461,-3.56491"
         sodipodi:open="true" />
      <path
         style="fill:#000000;fill-opacity:1;stroke:#000000;stroke-width:0.79375;stroke-opacity:1;stroke-dasharray:none"
         id="path237"
         sodipodi:type="arc"
         sodipodi:cx="113.61673"
         sodipodi:cy="108.12341"
         sodipodi:rx="7.1298246"
         sodipodi:ry="7.1298237"
         sodipodi:start="4.712389"
         sodipodi:end="1.5707963"
         sodipodi:arc-type="arc"
         d="m 113.61673,100.99359 a 7.1298246,7.1298237 0 0 1 7.12982,7.12982 7.1298246,7.1298237 0 0 1 -7.12982,7.12983"
         sodipodi:open="true" />
      <path
         style="fill:none;fill-opacity:1;stroke:#000000;stroke-width:0.79375;stroke-opacity:1;stroke-dasharray:none"
         id="path238"
         sodipodi:type="arc"
         sodipodi:cx="135.0062"
         sodipodi:cy="108.12341"
         sodipodi:rx="7.1298246"
         sodipodi:ry="7.1298237"
         sodipodi:start="1.5707963"
         sodipodi:end="4.712389"
         sodipodi:arc-type="arc"
         d="m 135.0062,115.25324 a 7.1298246,7.1298237 0 0 1 -6.17461,-3.56492 7.1298246,7.1298237 0 0 1 0,-7.12982 7.1298246,7.1298237 0 0 1 6.17461,-3.56491"
         sodipodi:open="true" />
      <path
         style="fill:#000000;fill-opacity:1;stroke:#000000;stroke-width:0.79375;stroke-opacity:1;stroke-dasharray:none"
         id="path239"
         sodipodi:type="arc"
         sodipodi:cx="135.0062"
         sodipodi:cy="108.12341"
         sodipodi:rx="7.1298246"
         sodipodi:ry="7.1298237"
         sodipodi:start="4.712389"
         sodipodi:end="1.5707963"
         sodipodi:arc-type="arc"
         d="m 135.0062,100.99359 a 7.1298246,7.1298237 0 0 1 7.12982,7.12982 7.1298246,7.1298237 0 0 1 -7.12982,7.12983"
         sodipodi:open="true" />
      <path
         style="fill:#000000;fill-opacity:1;stroke:#000000;stroke-width:0.79375;stroke-opacity:1;stroke-dasharray:none"
         id="path240"
         sodipodi:type="arc"
         sodipodi:cx="92.227257"
         sodipodi:cy="86.733932"
         sodipodi:rx="7.1298246"
         sodipodi:ry="7.1298237"
         sodipodi:start="1.5707963"
         sodipodi:end="4.712389"
         sodipodi:arc-type="arc"
         d="m 92.227257,93.863756 a 7.1298246,7.1298237 0 0 1 -6.174609,-3.564912 7.1298246,7.1298237 0 0 1 0,-7.129823 7.1298246,7.1298237 0 0 1 6.174609,-3.564912"
         sodipodi:open="true" />
      <path
         style="fill:none;fill-opacity:1;stroke:#000000;stroke-width:0.79375;stroke-opacity:1;stroke-dasharray:none"
         id="path241"
         sodipodi:type="arc"
         sodipodi:cx="92.227257"
         sodipodi:cy="86.733932"
         sodipodi:rx="7.1298246"
         sodipodi:ry="7.1298237"
         sodipodi:start="4.712389"
         sodipodi:end="1.5707963"
         sodipodi:arc-type="arc"
         d="m 92.227257,79.604109 a 7.1298246,7.1298237 0 0 1 7.129824,7.129823 7.1298246,7.1298237 0 0 1 -7.129824,7.129824"
         sodipodi:open="true" />
      <path
         style="fill:none;fill-opacity:1;stroke:#000000;stroke-width:0.79375;stroke-opacity:1;stroke-dasharray:none"
         id="path242"
         sodipodi:type="arc"
         sodipodi:cx="113.61673"
         sodipodi:cy="129.51288"
         sodipodi:rx="7.1298246"
         sodipodi:ry="7.1298237"
         sodipodi:start="1.5707963"
         sodipodi:end="4.712389"
         sodipodi:arc-type="arc"
         d="m 113.61673,136.6427 a 7.1298246,7.1298237 0 0 1 -6.17461,-3.56491 7.1298246,7.1298237 0 0 1 0,-7.12982 7.1298246,7.1298237 0 0 1 6.17461,-3.56492"
         sodipodi:open="true" />
      <path
         style="fill:#000000;fill-opacity:1;stroke:#000000;stroke-width:0.79375;stroke-opacity:1;stroke-dasharray:none"
         id="path243"
         sodipodi:type="arc"
         sodipodi:cx="113.61673"
         sodipodi:cy="129.51288"
         sodipodi:rx="7.1298246"
         sodipodi:ry="7.1298237"
         sodipodi:start="4.712389"
         sodipodi:end="1.5707963"
         sodipodi:arc-type="arc"
         d="m 113.61673,122.38305 a 7.1298246,7.1298237 0 0 1 7.12982,7.12983 7.1298246,7.1298237 0 0 1 -7.12982,7.12982"
         sodipodi:open="true" />
      <ellipse
         style="fill:none;fill-opacity:1;stroke:#000000;stroke-width:0.79375;stroke-opacity:1;stroke-dasharray:none"
         id="path244"
         cx="135.0062"
         cy="129.51288"
         rx="7.1298246"
         ry="7.1298237" />
      <ellipse
         style="fill:#000000;fill-opacity:1;stroke:#000000;stroke-width:0.79375;stroke-opacity:1;stroke-dasharray:none"
         id="ellipse6"
         cx="92.038612"
         cy="129.81755"
         rx="7.1298246"
         ry="7.1298237" />
      <ellipse
         style="fill:#000000;fill-opacity:1;stroke:#000000;stroke-width:0.79375;stroke-opacity:1;stroke-dasharray:none"
         id="ellipse7"
         cx="92.038612"
         cy="108.42807"
         rx="7.1298246"
         ry="7.1298237" />
      <ellipse
         style="fill:#000000;fill-opacity:1;stroke:#000000;stroke-width:0.79375;stroke-opacity:1;stroke-dasharray:none"
         id="ellipse8"
         cx="113.42809"
         cy="87.038597"
         rx="7.1298246"
         ry="7.1298237" />
      <ellipse
         style="fill:#000000;fill-opacity:1;stroke:#000000;stroke-width:0.79375;stroke-opacity:1;stroke-dasharray:none"
         id="ellipse9"
         cx="134.81755"
         cy="87.038597"
         rx="7.1298246"
         ry="7.1298237" />
      <ellipse
         style="fill:#000000;fill-opacity:1;stroke:#000000;stroke-width:0.79375;stroke-opacity:1;stroke-dasharray:none"
         id="ellipse10"
         cx="134.81755"
         cy="65.649124"
         rx="7.1298246"
         ry="7.1298237" />
    </g>
    <path
       style="fill:#979797;fill-opacity:1;stroke:#ffffff;stroke-width:0.0700042;stroke-opacity:1"
       id="path214"
       sodipodi:type="arc"
       sodipodi:cx="273.11682"
       sodipodi:cy="118.99999"
       sodipodi:rx="0.11681135"
       sodipodi:ry="1.7145396e-12"
       sodipodi:start="1.5707963"
       sodipodi:end="4.712389"
       sodipodi:open="true"
       sodipodi:arc-type="arc" />
  </g>
</svg>
